<!--?xml version="1.0" standalone="no"?-->
              <svg id="sw-js-blob-svg" viewBox="0 0 100 100" xmlns="http://www.w3.org/2000/svg" version="1.1">
                    <defs> 
                        <linearGradient id="sw-gradient" x1="0" x2="1" y1="1" y2="0">
                            <stop id="stop1" stop-color="rgba(248, 117, 55, 1)" offset="0%"></stop>
                            <stop id="stop2" stop-color="rgba(251, 168, 31, 1)" offset="100%"></stop>
                        </linearGradient>
                    </defs>
                <path fill="url(#sw-gradient)" d="M20.1,-21.2C27.8,-17.5,37.1,-12.8,37.5,-7.1C37.8,-1.5,29.3,5.2,23.4,11.7C17.5,18.1,14.3,24.2,8.3,29C2.4,33.7,-6.2,37.2,-13.7,35.4C-21.1,33.6,-27.5,26.6,-28.5,19.2C-29.5,11.8,-25.1,4.1,-22,-2.2C-18.8,-8.4,-17,-13.2,-13.5,-17.7C-10,-22.1,-5,-26.3,0.6,-27C6.2,-27.7,12.4,-24.9,20.1,-21.2Z" width="100%" height="100%" transform="translate(50 50)" stroke-width="0" style="transition: all 0.3s ease 0s;"></path>
              </svg>