<!--?xml version="1.0" standalone="no"?-->
              <svg id="sw-js-blob-svg" viewBox="0 0 100 100" xmlns="http://www.w3.org/2000/svg" version="1.1">
                    <defs> 
                        <linearGradient id="sw-gradient" x1="0" x2="1" y1="1" y2="0">
                            <stop id="stop1" stop-color="rgba(248, 117, 55, 1)" offset="0%"></stop>
                            <stop id="stop2" stop-color="rgba(251, 168, 31, 1)" offset="100%"></stop>
                        </linearGradient>
                    </defs>
                <path fill="url(#sw-gradient)" d="M23.2,-28.6C29.8,-22.2,34.7,-14.6,37,-5.9C39.3,2.8,39,12.6,34.7,20C30.4,27.5,22,32.5,12.7,36.6C3.4,40.7,-6.8,43.8,-13.6,40.1C-20.3,36.4,-23.6,26,-28.8,16.7C-34,7.5,-41.2,-0.5,-42,-9.3C-42.7,-18.1,-36.9,-27.6,-28.8,-33.7C-20.8,-39.8,-10.4,-42.5,-1,-41.3C8.3,-40.1,16.7,-34.9,23.2,-28.6Z" width="100%" height="100%" transform="translate(50 50)" stroke-width="0" style="transition: all 0.3s ease 0s;"></path>
              </svg>